<svg width="50" height="49" viewBox="0 0 50 49" fill="none" xmlns="http://www.w3.org/2000/svg">
<g clip-path="url(#clip0_358_197)">
<path d="M49.7037 24.2244C49.7037 23.9044 49.5037 23.6044 49.1637 23.3944L42.8837 19.7744L49.1737 16.1244C49.5137 15.9244 49.7037 15.6344 49.7137 15.2944C49.7137 14.9744 49.5037 14.6744 49.1737 14.4844L25.8137 0.994385C25.5437 0.834385 25.1737 0.744385 24.8037 0.744385C24.4237 0.744385 24.0737 0.834385 23.7937 0.994385L0.593701 14.4744C0.253701 14.6744 0.0537012 14.9744 0.0537012 15.3044C0.0537012 15.6244 0.253701 15.9244 0.593701 16.1244L6.8737 19.7544L0.583701 23.4044C0.243701 23.6044 0.0437012 23.9044 0.0437012 24.2244C0.0437012 24.5444 0.243701 24.8544 0.583701 25.0544L7.1337 28.8344L0.583701 32.6444C0.243701 32.8344 0.0437012 33.1444 0.0437012 33.4644C0.0437012 33.7844 0.243701 34.0944 0.583701 34.2944L23.9337 47.7744C24.2137 47.9344 24.5637 48.0244 24.9437 48.0244C25.3237 48.0244 25.6837 47.9344 25.9537 47.7744L49.1537 34.2944C49.4937 34.0944 49.6837 33.7944 49.6837 33.4744C49.6837 33.1544 49.4837 32.8544 49.1437 32.6544L42.5937 28.8744L49.1537 25.0644C49.4937 24.8644 49.6837 24.5644 49.6837 24.2444L49.7037 24.2244ZM19.5037 6.31438L24.8037 3.23438L30.1437 6.31438L24.8437 9.39438L19.5037 6.31438ZM27.3137 10.7944L32.5937 7.72438L37.9337 10.8044L32.6537 13.8744L27.3137 10.7944ZM22.4637 19.7944L17.1637 22.8744L11.8237 19.7944L17.1237 16.7144L22.4637 19.7944ZM27.3337 19.7944L32.6337 16.7144L37.9737 19.7944L32.6737 22.8744L27.3337 19.7944ZM30.2537 24.2844L24.9537 27.3644L19.6137 24.2844L24.9137 21.2044L30.2537 24.2844ZM23.9437 29.6044C24.2137 29.7644 24.5737 29.8544 24.9537 29.8544C25.3337 29.8544 25.6837 29.7644 25.9637 29.6044L40.4537 21.1844L45.7137 24.2244L25.1337 36.1844L24.9437 36.2944L4.0437 24.2244L9.3137 21.1544L23.9437 29.6044ZM19.5537 15.2944L24.8537 12.2144L30.1937 15.2944L24.8937 18.3744L19.5537 15.2944ZM35.0937 15.2844L40.3737 12.2144L45.7137 15.2944L40.4337 18.3644L35.0937 15.2844ZM11.7737 10.8044L17.0737 7.72438L22.3437 10.7644L17.0437 13.8444L11.7737 10.8044ZM4.0337 15.2944L9.3337 12.2144L14.6037 15.2544L9.3037 18.3344L4.0337 15.2944ZM9.5937 30.2344L23.9537 38.5244C24.5237 38.8444 25.4337 38.8444 25.9737 38.5244L40.1837 30.2644L45.7137 33.4544L25.1337 45.4144L24.9437 45.5244L4.0437 33.4644L9.5937 30.2444V30.2344Z" fill="#F8F8F8"/>
</g>
<defs>
<clipPath id="clip0_358_197">
<rect width="49.65" height="47.27" fill="white" transform="translate(0.0537109 0.744385)"/>
</clipPath>
</defs>
</svg>
