<svg width="21" height="33" viewBox="0 0 21 33" fill="none" xmlns="http://www.w3.org/2000/svg">
<g clip-path="url(#clip0_41_525)">
<path d="M15.75 13.4278H10.5C10.5 10.4755 11.5917 7.69912 13.5753 5.61057C15.559 3.52203 18.1959 2.37264 21 2.37264V7.9002C18.1048 7.9002 15.75 10.3795 15.75 13.4278ZM18.3739 27.9379H2.62391V32.083H18.3739V27.9379ZM17.9225 21.245C19.9062 19.1564 20.9978 16.3801 20.9978 13.4278H15.7478C15.7478 14.9039 15.2009 16.2932 14.2112 17.3352C13.2194 18.3795 11.902 18.953 10.5 18.953C9.09797 18.953 7.77842 18.3772 6.78876 17.3329C5.79692 16.2887 5.25217 14.9016 5.25217 13.4255C5.25217 11.9493 5.79909 10.56 6.78876 9.51803L12.0388 3.99046L8.32534 0.0830078L3.07534 5.61057C1.09167 7.69912 0 10.4755 0 13.4278C0 16.3801 1.09167 19.1564 3.07534 21.245C5.05901 23.3335 7.69595 24.4829 10.5 24.4829C13.3041 24.4829 15.941 23.3335 17.9247 21.245H17.9225Z" fill="#F8F8F8"/>
</g>
<defs>
<clipPath id="clip0_41_525">
<rect width="21" height="33" fill="white"/>
</clipPath>
</defs>
</svg>
