<svg width="51" height="44" viewBox="0 0 51 44" fill="none" xmlns="http://www.w3.org/2000/svg">
<g clip-path="url(#clip0_358_180)">
<path d="M49.9455 1.27428C49.4255 0.704277 48.7255 0.384277 47.9755 0.384277H40.1755C38.5155 0.384277 37.0655 1.94428 36.8755 3.94428L33.5855 39.2543C33.4855 40.3743 33.7955 41.4243 34.4555 42.1443C34.9755 42.7143 35.6755 43.0343 36.4255 43.0343H44.2255C45.8855 43.0343 47.3355 41.4743 47.5255 39.4743L50.8155 4.16428C50.9155 3.04428 50.6055 1.99428 49.9455 1.27428ZM48.4255 3.94428L45.1355 39.2543C45.0555 40.0843 44.5355 40.6343 44.2255 40.6343H36.4255C36.4255 40.6343 36.3255 40.6343 36.2255 40.5243C36.0755 40.3543 35.9255 39.9943 35.9755 39.4743L39.2655 4.16428C39.3455 3.33428 39.8655 2.78428 40.1755 2.78428H47.9755C47.9755 2.78428 48.0755 2.78428 48.1755 2.89428C48.3255 3.06428 48.4755 3.42428 48.4255 3.94428Z" fill="#F8F8F8"/>
<path d="M29.9856 11.8542H22.1856C20.5256 11.8542 19.0756 13.4142 18.8856 15.4042L16.6256 39.2342C16.5256 40.3542 16.8356 41.4042 17.4956 42.1242C18.0156 42.6942 18.7156 43.0142 19.4656 43.0142H27.2656C28.9256 43.0142 30.3756 41.4542 30.5656 39.4642L32.8256 15.6342C32.9256 14.5142 32.6156 13.4642 31.9556 12.7442C31.4356 12.1742 30.7356 11.8542 29.9856 11.8542ZM30.4356 15.4142L28.1756 39.2442C28.0956 40.0742 27.5756 40.6242 27.2656 40.6242H19.4656C19.4656 40.6242 19.3656 40.6242 19.2656 40.5142C19.1156 40.3442 18.9656 39.9842 19.0156 39.4642L21.2756 15.6342C21.3556 14.8042 21.8756 14.2542 22.1856 14.2542H29.9856C29.9856 14.2542 30.0856 14.2542 30.1856 14.3642C30.3356 14.5342 30.4856 14.8942 30.4356 15.4142Z" fill="#F8F8F8"/>
<path d="M12.3457 22.6543H4.54572C2.88572 22.6543 1.43572 24.2143 1.24572 26.2143L0.0157174 39.2443C-0.0842826 40.3643 0.225717 41.4143 0.885717 42.1343C1.40572 42.7043 2.10572 43.0243 2.85572 43.0243H10.6557C12.3157 43.0243 13.7657 41.4643 13.9557 39.4743L15.1957 26.4343C15.2957 25.3143 14.9857 24.2643 14.3257 23.5443C13.8057 22.9743 13.1057 22.6543 12.3557 22.6543H12.3457ZM12.7957 26.2143L11.5557 39.2543C11.4757 40.0843 10.9557 40.6343 10.6457 40.6343H2.85572C2.85572 40.6343 2.75572 40.6343 2.65572 40.5243C2.50572 40.3543 2.35572 39.9943 2.40572 39.4743L3.64572 26.4343C3.72572 25.6043 4.24572 25.0543 4.55572 25.0543H12.3557C12.3557 25.0543 12.4557 25.0543 12.5457 25.1643C12.6957 25.3343 12.8457 25.7043 12.7957 26.2143Z" fill="#F8F8F8"/>
</g>
<defs>
<clipPath id="clip0_358_180">
<rect width="50.84" height="42.64" fill="white" transform="translate(-0.00439453 0.384277)"/>
</clipPath>
</defs>
</svg>
