<svg width="294" height="301" viewBox="0 0 294 301" fill="none" xmlns="http://www.w3.org/2000/svg">
    <g clip-path="url(#clip0_8_10)">
        <path id="orbit_01"
            d="M290.28 11.1927C294.564 17.3117 294.791 25.9493 291.357 36.4487C287.927 46.9377 280.873 59.1858 270.766 72.4121C250.554 98.86 218.204 129.127 178.501 156.927C138.797 184.728 99.2914 204.775 67.5259 214.722C51.6402 219.696 37.7183 222.136 26.6886 221.771C15.6481 221.407 7.6087 218.24 3.32413 212.121C-0.960441 206.002 -1.18647 197.365 2.24703 186.865C5.67717 176.376 12.7309 164.128 22.8384 150.902C43.0498 124.454 75.4002 94.1873 115.103 66.3868C154.807 38.5862 194.313 18.5386 226.078 8.59187C241.964 3.61756 255.886 1.17831 266.915 1.54251C277.956 1.90706 285.995 5.0737 290.28 11.1927Z"
            stroke="#FF0000" />
        <path
            d="M270.37 24.4928C273.943 29.596 274.058 36.8758 271.019 45.7962C267.984 54.7043 261.837 65.1428 253.068 76.445C235.534 99.0443 207.59 125.004 173.388 148.953C139.186 172.901 105.235 190.281 78.0012 199.028C64.3814 203.403 52.47 205.609 43.0612 205.414C33.6394 205.219 26.8379 202.621 23.2646 197.518C19.6912 192.415 19.5766 185.135 22.6155 176.214C25.6502 167.306 31.7973 156.868 40.5663 145.566C58.1003 122.966 86.0442 97.0062 120.246 73.0578C154.448 49.1094 188.4 31.7296 215.633 22.9825C229.253 18.6079 241.164 16.4016 250.573 16.5967C259.995 16.7921 266.797 19.3896 270.37 24.4928Z"
            stroke="#FF0000" />
        <path
            d="M250.022 38.5411C252.917 42.6767 252.964 48.6355 250.372 56.0016C247.784 63.3535 242.603 71.9959 235.236 81.3759C220.505 100.131 197.109 121.743 168.535 141.751C139.96 161.759 111.65 176.352 88.9881 183.78C77.654 187.494 67.7607 189.407 59.9672 189.324C52.1587 189.241 46.5752 187.159 43.6794 183.023C40.7836 178.888 40.7368 172.929 43.3293 165.563C45.9168 158.211 51.098 149.569 58.4653 140.189C73.1958 121.434 96.592 99.8219 125.166 79.814C153.741 59.806 182.051 45.2124 204.713 37.7849C216.047 34.0701 225.94 32.1571 233.734 32.2402C241.542 32.3234 247.126 34.4054 250.022 38.5411Z"
            stroke="#FF0000" />
        <path
            d="M229.329 53.1535C231.5 56.254 231.455 60.8197 229.291 66.5661C227.134 72.294 222.914 79.071 216.957 86.4623C205.046 101.24 186.265 118.381 163.431 134.369C140.598 150.357 118.067 162.143 100.107 168.281C91.1243 171.351 83.3128 172.998 77.1926 173.066C71.0526 173.134 66.7469 171.615 64.5759 168.515C62.4049 165.414 62.45 160.848 64.6139 155.102C66.7709 149.374 70.9904 142.597 76.9478 135.206C88.858 120.429 107.64 103.288 130.473 87.2994C153.307 71.3113 175.838 59.5249 193.797 53.387C202.78 50.3169 210.592 48.6697 216.712 48.6019C222.852 48.5338 227.158 50.053 229.329 53.1535Z"
            stroke="#FF0000" />
    </g>
    <defs>
        <clipPath id="clip0_8_10">
            <rect width="294" height="301" fill="white" />
        </clipPath>
    </defs>
</svg>