<svg width="56" height="58" viewBox="0 0 56 58" fill="none" xmlns="http://www.w3.org/2000/svg">
<path d="M10.8489 21.2285C5.2414 21.2285 0.682129 16.7937 0.682129 11.3516C0.682129 5.90939 5.2414 1.4623 10.8489 1.4623C16.4564 1.4623 21.0157 5.89711 21.0157 11.3516C21.0157 16.806 16.4564 21.2408 10.8489 21.2408V21.2285ZM10.8489 4.39836C6.92113 4.39836 3.71322 7.50642 3.71322 11.3393C3.71322 15.1721 6.9085 18.2802 10.8489 18.2802C14.7893 18.2802 17.9846 15.1721 17.9846 11.3393C17.9846 7.50642 14.7893 4.39836 10.8489 4.39836ZM46.7042 17.2851C42.0439 17.2851 38.2424 13.5874 38.2424 9.0543C38.2424 4.52121 42.0439 0.823486 46.7042 0.823486C51.3645 0.823486 55.166 4.52121 55.166 9.0543C55.166 13.5874 51.3645 17.2851 46.7042 17.2851ZM46.7042 3.77184C43.711 3.77184 41.2735 6.1428 41.2735 9.0543C41.2735 11.9658 43.711 14.3368 46.7042 14.3368C49.6974 14.3368 52.1349 11.9658 52.1349 9.0543C52.1349 6.1428 49.6974 3.77184 46.7042 3.77184ZM9.4344 57.5178C4.7741 57.5178 0.972609 53.8201 0.972609 49.287C0.972609 44.7539 4.7741 41.0562 9.4344 41.0562C14.0947 41.0562 17.8962 44.7539 17.8962 49.287C17.8962 53.8201 14.0947 57.5178 9.4344 57.5178ZM9.4344 44.0046C6.4412 44.0046 4.0037 46.3755 4.0037 49.287C4.0037 52.1985 6.4412 54.5695 9.4344 54.5695C12.4276 54.5695 14.8651 52.1985 14.8651 49.287C14.8651 46.3755 12.4276 44.0046 9.4344 44.0046ZM27.4189 34.9875C23.87 34.9875 20.9904 32.1866 20.9904 28.7345C20.9904 25.2825 23.87 22.4816 27.4189 22.4816C30.9678 22.4816 33.8473 25.2825 33.8473 28.7345C33.8473 32.1866 30.9678 34.9875 27.4189 34.9875ZM27.4189 25.4299C25.5497 25.4299 24.0215 26.9164 24.0215 28.7345C24.0215 30.5527 25.5497 32.0392 27.4189 32.0392C29.2881 32.0392 30.8162 30.5527 30.8162 28.7345C30.8162 26.9164 29.2881 25.4299 27.4189 25.4299ZM45.5802 49.1027C40.9199 49.1027 37.1184 45.405 37.1184 40.8719C37.1184 36.3388 40.9199 32.6411 45.5802 32.6411C50.2405 32.6411 54.042 36.3388 54.042 40.8719C54.042 45.405 50.2405 49.1027 45.5802 49.1027ZM45.5802 35.5895C42.587 35.5895 40.1495 37.9604 40.1495 40.8719C40.1495 43.7834 42.587 46.1544 45.5802 46.1544C48.5734 46.1544 51.0109 43.7834 51.0109 40.8719C51.0109 37.9604 48.5734 35.5895 45.5802 35.5895Z" fill="#F8F8F8"/>
</svg>
