<svg width="48" height="48" viewBox="0 0 48 48" fill="none" xmlns="http://www.w3.org/2000/svg">
<g clip-path="url(#clip0_409_629)">
<path d="M47.1072 23.7904C47.1072 21.8104 45.6972 20.1704 43.8372 19.8004C43.3072 17.1104 42.2472 14.6104 40.7672 12.4104C41.8272 10.8304 41.6572 8.67041 40.2572 7.27041C38.8572 5.87041 36.6972 5.70041 35.1172 6.76041C32.9172 5.28041 30.4172 4.23041 27.7272 3.69041C27.3572 1.82041 25.7072 0.42041 23.7372 0.42041C21.7672 0.42041 20.1172 1.83041 19.7472 3.69041C17.0572 4.22041 14.5572 5.28041 12.3572 6.76041C10.7772 5.70041 8.61719 5.87041 7.21719 7.27041C5.81719 8.67041 5.64719 10.8304 6.70719 12.4104C5.22719 14.6104 4.17719 17.1104 3.63719 19.8004C1.76719 20.1704 0.367188 21.8204 0.367188 23.7904C0.367188 25.7604 1.77719 27.4104 3.63719 27.7804C4.16719 30.4704 5.22719 32.9704 6.70719 35.1704C5.64719 36.7504 5.81719 38.9104 7.21719 40.3104C8.61719 41.7104 10.7772 41.8804 12.3572 40.8204C14.5572 42.3004 17.0572 43.3504 19.7472 43.8904C20.1172 45.7604 21.7672 47.1604 23.7372 47.1604C25.7072 47.1604 27.3572 45.7504 27.7272 43.8904C30.4172 43.3604 32.9172 42.3004 35.1172 40.8204C36.6972 41.8804 38.8572 41.7104 40.2572 40.3104C41.6572 38.9104 41.8272 36.7504 40.7672 35.1704C42.2472 32.9704 43.2972 30.4704 43.8372 27.7804C45.7072 27.4104 47.1072 25.7604 47.1072 23.7904ZM39.2772 22.2004L35.9372 21.8504C35.8872 20.8804 35.5072 19.9204 34.7672 19.1704C34.7172 19.1204 34.6572 19.0804 34.5972 19.0304L36.8372 14.1704C37.5272 14.2604 38.2272 14.1904 38.8772 13.9304C40.0772 15.7704 40.9572 17.8304 41.4272 20.0404C40.4572 20.4504 39.6872 21.2304 39.2772 22.1904V22.2004ZM34.4972 34.5604C34.3972 34.6604 34.3272 34.7704 34.2372 34.8804L25.1072 31.7104C25.0372 31.1904 24.8772 30.6904 24.6072 30.2204L30.0772 25.6804C30.7072 25.9904 31.3872 26.1404 32.0772 26.1004L34.9872 34.1404C34.8172 34.2604 34.6472 34.3904 34.4972 34.5404V34.5604ZM8.39719 22.8804L16.6872 18.8604C16.6872 18.8604 16.7372 18.9304 16.7772 18.9704C17.2572 19.4504 17.8272 19.7704 18.4372 19.9604L19.4972 28.5004C19.0272 28.7004 18.5872 28.9804 18.2072 29.3604L8.45719 24.4604C8.49719 24.2404 8.52719 24.0204 8.52719 23.7904C8.52719 23.4704 8.48719 23.1704 8.41719 22.8804H8.39719ZM28.3272 24.0204L22.8272 28.5804C22.5172 28.4304 22.2072 28.3104 21.8772 28.2504L20.8472 19.9704C21.4672 19.7804 22.0472 19.4604 22.5372 18.9704C22.5672 18.9404 22.5872 18.9004 22.6172 18.8704L27.8672 21.4304C27.7272 22.3104 27.8872 23.2204 28.3272 24.0204ZM34.4972 13.0304C34.5472 13.0804 34.6072 13.1204 34.6672 13.1704L32.4272 18.0304C31.2172 17.8704 29.9472 18.2404 29.0072 19.1704C28.9772 19.2004 28.9572 19.2404 28.9272 19.2704L23.6772 16.7104C23.8672 15.4704 23.4972 14.1604 22.5472 13.2004C22.4072 13.0604 22.2472 12.9404 22.0872 12.8204L23.5872 8.55041C23.6372 8.55041 23.6872 8.57041 23.7472 8.57041C25.4272 8.57041 26.8772 7.55041 27.4972 6.09041C29.7072 6.56041 31.7772 7.44041 33.6072 8.64041C33.0272 10.1104 33.3272 11.8404 34.5072 13.0304H34.4972ZM21.3072 7.76041L19.8072 12.0304C18.7672 11.9904 17.7172 12.3504 16.8972 13.1104L13.9472 11.4004C14.2372 10.5004 14.2172 9.53041 13.8672 8.64041C15.7072 7.44041 17.7672 6.56041 19.9772 6.09041C20.2672 6.76041 20.7272 7.33041 21.3072 7.76041ZM12.5572 13.3604L15.6972 15.1804C15.5872 15.6804 15.5672 16.1904 15.6472 16.7004L7.18719 20.8004C6.84719 20.4904 6.46719 20.2304 6.03719 20.0404C6.50719 17.8304 7.38719 15.7604 8.58719 13.9304C9.89719 14.4504 11.4072 14.2504 12.5672 13.3604H12.5572ZM7.36719 26.6104L17.0772 31.4904C17.0172 31.8304 17.0072 32.1704 17.0372 32.5204L13.1372 34.7604C13.0772 34.7004 13.0372 34.6204 12.9772 34.5604C11.7872 33.3704 10.0572 33.0704 8.58719 33.6604C7.38719 31.8204 6.50719 29.7604 6.03719 27.5504C6.54719 27.3304 6.99719 27.0104 7.37719 26.6204L7.36719 26.6104ZM14.1172 36.9504L17.9172 34.7704C18.0072 34.8904 18.0872 35.0104 18.1972 35.1104C18.9572 35.8704 19.9372 36.2504 20.9372 36.2904L21.6972 39.5704C20.9372 40.0104 20.3372 40.6704 19.9872 41.4804C17.7772 41.0104 15.7072 40.1304 13.8772 38.9304C14.1272 38.2904 14.2072 37.6104 14.1172 36.9404V36.9504ZM24.0272 39.0504L23.2472 35.6804C23.4972 35.5204 23.7372 35.3404 23.9572 35.1204C24.2572 34.8204 24.4872 34.4704 24.6772 34.1004L33.3272 37.1004C33.2772 37.7204 33.3472 38.3504 33.5872 38.9404C31.7472 40.1404 29.6872 41.0204 27.4772 41.4904C26.8972 40.1204 25.5772 39.1604 24.0272 39.0404V39.0504ZM37.2572 33.3804L34.3272 25.2904C34.4772 25.1804 34.6272 25.0704 34.7572 24.9404C34.9872 24.7104 35.1672 24.4604 35.3272 24.2004L39.0272 24.5904C39.2872 25.9304 40.2072 27.0304 41.4272 27.5504C40.9572 29.7604 40.0772 31.8304 38.8772 33.6604C38.3572 33.4504 37.8072 33.3604 37.2472 33.3804H37.2572Z" fill="#F8F8F8"/>
</g>
<defs>
<clipPath id="clip0_409_629">
<rect width="46.75" height="46.75" fill="white" transform="translate(0.357178 0.42041)"/>
</clipPath>
</defs>
</svg>
